<svg width="412" height="174" viewBox="0 0 412 174" fill="none" xmlns="http://www.w3.org/2000/svg">
<path d="M154.677 68.6245V136.415H167.751C181.789 136.415 185.918 134.908 191.423 127.711C198.167 119.007 198.718 114.487 198.718 68.2897C198.718 29.959 198.305 24.268 196.103 18.4096C191.148 5.35368 183.579 0.834351 166.375 0.834351H154.677V68.6245ZM180.826 22.5941C183.441 25.7744 183.579 28.1178 183.579 68.2897C183.579 115.994 183.166 118.002 174.495 118.002H169.816V68.6245V19.2465H173.945C176.284 19.2465 179.312 20.7529 180.826 22.5941Z" fill="white"/>
<path d="M271.523 29.2894C264.779 31.6328 261.751 34.6457 259.137 41.5084C256.934 47.7016 256.522 52.8904 256.522 83.3541C256.522 120.848 256.934 123.191 263.953 131.226C266.706 134.406 269.459 135.578 275.789 136.08L284.047 136.749V143.11C284.047 146.625 283.634 150.642 283.221 152.149C282.12 155.664 274 155.664 271.661 152.316C270.56 150.642 267.532 149.805 263.265 149.805C255.558 149.805 254.732 151.814 258.999 161.355C265.743 176.419 287.763 177.423 295.057 162.861C297.672 157.672 297.81 154.492 297.81 101.264C297.81 48.5385 297.672 44.8561 295.057 39.8346C290.929 31.4654 279.918 26.4439 271.523 29.2894ZM281.845 48.7059C283.634 50.8818 284.047 56.4055 284.047 82.5172C284.047 99.7577 283.497 114.822 282.808 115.994C282.12 117.333 279.781 118.002 277.028 117.668L272.349 117.165L271.936 83.8563C271.661 60.7574 272.074 49.8775 273.175 48.3711C275.239 45.1908 279.23 45.3582 281.845 48.7059Z" fill="white"/>
<path d="M320.519 29.4583C318.179 30.1278 314.876 32.4712 313.087 34.4798C306.893 41.6772 306.068 46.8661 306.068 83.1882C306.068 112.145 306.481 118.004 308.545 123.025C311.986 131.395 318.729 136.416 326.849 136.416H333.593V142.944C333.593 146.626 333.18 150.644 332.767 152.15C331.666 155.665 322.858 155.832 321.757 152.317C320.656 148.802 307.719 148.802 306.618 152.317C305.379 155.832 310.334 165.038 315.702 169.39C323.959 176.253 338.135 173.575 344.328 164.034C347.356 159.515 347.356 158.343 347.356 100.763V42.3468L341.989 35.8188C338.135 31.1321 335.52 29.2909 332.492 29.2909C330.153 29.2909 327.538 28.9561 326.437 28.6214C325.473 28.2866 322.721 28.6214 320.519 29.4583ZM330.978 47.703C333.456 49.3769 333.593 51.5528 333.593 81.6818C333.593 99.4244 333.043 114.824 332.355 115.995C331.666 117.334 329.327 118.004 326.574 117.669L321.895 117.167L321.482 83.8577C321.207 50.2138 321.62 46.0292 326.299 46.0292C327.4 46.0292 329.464 46.8661 330.978 47.703Z" fill="white"/>
<path d="M95.4969 31.9675C84.7619 35.4826 78.5686 39.4998 76.9171 44.0191C75.6785 47.3668 74.8527 47.5341 69.0723 46.6972C59.4384 45.1908 53.3827 47.1994 47.1895 53.8947L41.6844 59.9205L37.9684 55.5685C31.4999 48.0363 27.6463 49.3754 17.1866 62.4312C7.82791 74.3154 2.32279 85.3627 0.946516 95.2383C-0.154507 103.44 4.11196 108.294 11.9567 107.625C19.3887 106.955 22.967 100.762 26.1324 83.1867C28.3345 70.2982 30.9494 64.4398 34.3901 64.4398C37.6932 64.4398 37.8308 67.7875 35.0782 76.8262C30.6741 91.3885 28.6097 112.814 30.6741 121.517C33.0138 130.723 40.8586 140.432 48.0152 142.942C55.3095 145.453 72.513 145.286 79.532 142.775C87.2392 139.93 94.6711 130.389 96.5979 121.015C99.4881 107.122 95.4969 80.3412 88.2026 64.1051C84.0738 54.899 83.9361 54.2295 86.2758 51.5513C88.4778 48.8732 89.166 48.8732 97.8365 51.5513C113.251 56.0707 115.866 56.4054 120.958 54.3969C123.573 53.3926 126.463 51.0492 127.151 49.3754C129.491 44.1865 128.803 36.6543 125.637 33.3066C121.784 29.122 105.957 28.4525 95.4969 31.9675ZM53.9332 89.0451C54.6214 91.8906 50.3549 93.8992 48.4281 91.5559C47.6024 90.5516 47.4647 89.0451 48.0152 87.8734C49.2539 85.5301 53.1075 86.367 53.9332 89.0451ZM80.0825 89.0451C80.7707 91.8906 76.5042 93.8992 74.5774 91.5559C73.7517 90.5516 73.614 89.0451 74.1645 87.8734C75.4032 85.5301 79.2568 86.367 80.0825 89.0451ZM71.8249 107.29C77.1924 111.809 74.9903 120.346 67.696 123.526C66.3198 124.196 65.2187 125.535 65.2187 126.539C65.2187 127.711 66.3198 130.054 67.696 131.895C70.0357 135.075 69.8981 135.243 66.7326 133.067C64.2553 131.56 62.7414 131.56 59.8512 133.067C56.4105 134.908 56.4105 134.908 58.7502 131.895C61.6404 127.878 61.778 123.024 59.0255 123.024C57.9245 123.024 55.7224 121.517 54.2085 119.676C48.5658 112.814 53.1075 104.612 62.8791 104.612C66.0445 104.612 70.1733 105.783 71.8249 107.29Z" fill="white"/>
<path d="M216.885 32.6373C207.664 39.5 206.976 42.6803 206.976 82.8522C206.976 115.827 207.251 119.342 209.728 124.363C218.123 141.101 238.768 140.265 245.787 123.024C247.851 118.003 248.264 112.144 248.264 82.8522C248.264 44.3541 247.438 40.1695 238.768 33.1395C232.712 28.2854 223.216 27.9506 216.885 32.6373ZM232.437 82.8522V117.166L228.308 117.668C221.427 118.672 220.738 115.659 220.738 83.187C220.738 50.3799 221.427 47.1996 228.033 48.0366L232.437 48.5387V82.8522Z" fill="white"/>
<path d="M366.211 79.8392C377.909 138.423 378.047 143.779 368.413 148.299C365.661 149.471 365.248 150.81 365.248 159.011C365.248 168.217 365.248 168.217 369.101 167.213C376.808 164.87 383.277 159.011 386.58 151.312C388.094 147.964 398.278 98.5861 409.977 38.8304L411.766 29.2896H404.059H396.214L390.846 57.4099C387.819 72.8091 385.066 86.3671 384.516 87.5388C384.103 88.7105 380.937 76.1568 377.772 59.4185L371.716 29.2896H363.871H356.027L366.211 79.8392Z" fill="white"/>
</svg>
